<?xml version="1.0" standalone="no"?>
<!DOCTYPE svg PUBLIC "-//W3C//DTD SVG 20010904//EN"
 "http://www.w3.org/TR/2001/REC-SVG-20010904/DTD/svg10.dtd">
<svg version="1.0" xmlns="http://www.w3.org/2000/svg"
 width="161.000000pt" height="161.000000pt" viewBox="0 0 161.000000 161.000000"
 preserveAspectRatio="xMidYMid meet">
<metadata>
Created by potrace 1.11, written by Peter Selinger 2001-2013
</metadata>
<g transform="translate(0.000000,161.000000) scale(0.100000,-0.100000)"
fill="#000000" stroke="none">
<path d="M181 1593 c-5 -11 -9 -286 -9 -670 0 -507 -2 -656 -12 -668 -15 -18
-15 -91 -1 -109 6 -7 11 -37 12 -67 1 -30 6 -60 12 -66 13 -18 1232 -19 1243
-1 4 6 7 67 7 135 0 68 3 126 8 129 5 3 6 11 2 17 -5 7 -8 298 -9 648 -1 350
-4 644 -7 653 -6 14 -65 16 -621 16 -576 0 -616 -1 -625 -17z"/>
</g>
</svg>
